HIERARCHY
ROOT Hips
{
    OFFSET 0.000000 0.000000 0.000000
    CHANNELS 6 Xposition Yposition Zposition Zrotation Xrotation Yrotation
    JOINT Spine
    {
        OFFSET -0.000000 7.236184 0.000000
        CHANNELS 3 Zrotation Xrotation Yrotation
        JOINT Spine1
        {
            OFFSET -0.000000 20.420147 0.000000
            CHANNELS 3 Zrotation Xrotation Yrotation
            JOINT Neck
            {
                OFFSET -0.000000 20.336288 1.848754
                CHANNELS 3 Zrotation Xrotation Yrotation
                JOINT Head
                {
                    OFFSET -0.000000 12.354461 -1.764923
                    CHANNELS 3 Zrotation Xrotation Yrotation
                    End Site
                    {
                        OFFSET -0.000000 22.061537 0.000000
                    }
                }
            }
            JOINT LeftShoulder
            {
                OFFSET 3.573296 18.396038 -0.314103
                CHANNELS 3 Zrotation Xrotation Yrotation
                JOINT LeftArm
                {
                    OFFSET 10.880760 0.000000 0.000000
                    CHANNELS 3 Zrotation Xrotation Yrotation
                    JOINT LeftForeArm
                    {
                        OFFSET 27.185530 0.000000 0.000000
                        CHANNELS 3 Zrotation Xrotation Yrotation
                        JOINT LeftHand
                        {
                            OFFSET 27.825975 0.000000 0.000000
                            CHANNELS 3 Zrotation Xrotation Yrotation
                            End Site
                            {
                                OFFSET 13.236923 0.000000 0.000000
                            }
                        }
                    }
                }
            }
            JOINT RightShoulder
            {
                OFFSET -3.474926 18.396038 -0.314103
                CHANNELS 3 Zrotation Xrotation Yrotation
                JOINT RightArm
                {
                    OFFSET -10.880760 0.000000 0.000000
                    CHANNELS 3 Zrotation Xrotation Yrotation
                    JOINT RightForeArm
                    {
                        OFFSET -27.185530 0.000000 0.000000
                        CHANNELS 3 Zrotation Xrotation Yrotation
                        JOINT RightHand
                        {
                            OFFSET -27.825975 0.000000 0.000000
                            CHANNELS 3 Zrotation Xrotation Yrotation
                            End Site
                            {
                                OFFSET -13.236923 0.000000 0.000000
                            }
                        }
                    }
                }
            }
        }
    }
    JOINT LeftUpLeg
    {
        OFFSET 8.824615 0.000000 0.000000
        CHANNELS 3 Zrotation Xrotation Yrotation
        JOINT LeftLeg
        {
            OFFSET -0.000000 -35.111282 0.000000
            CHANNELS 3 Zrotation Xrotation Yrotation
            JOINT LeftFoot
            {
                OFFSET -0.000000 -42.324711 0.000000
                CHANNELS 3 Zrotation Xrotation Yrotation
                JOINT LeftToeBase
                {
                    OFFSET -0.000000 -5.735999 13.236923
                    CHANNELS 3 Zrotation Xrotation Yrotation
                    End Site
                    {
                        OFFSET -0.000000 0.000000 3.529846
                    }
                }
            }
        }
    }
    JOINT RightUpLeg
    {
        OFFSET -8.824615 0.000000 0.000000
        CHANNELS 3 Zrotation Xrotation Yrotation
        JOINT RightLeg
        {
            OFFSET -0.000000 -35.111282 0.000000
            CHANNELS 3 Zrotation Xrotation Yrotation
            JOINT RightFoot
            {
                OFFSET -0.000000 -42.324711 0.000000
                CHANNELS 3 Zrotation Xrotation Yrotation
                JOINT RightToeBase
                {
                    OFFSET -0.000000 -5.735999 13.236923
                    CHANNELS 3 Zrotation Xrotation Yrotation
                    End Site
                    {
                        OFFSET -0.000000 0.000000 3.529846
                    }
                }
            }
        }
    }
}
MOTION
Frames:    12
Frame Time:    0.008333
-7.613651    82.839737    102.656937    -0.947564    -9.053031    175.639709    -3.166414    -20.482885    -0.281827    2.026324    13.762607    0.045981    1.862972    1.664811    -1.036362    7.380939    -3.337239    -0.062231    1.899575    17.619078    -2.392470    -41.825256    43.585968    -45.058323    1.313990    -4.896454    -16.344357    15.310924    -4.730545    -0.165271    2.234375    21.315676    -0.107153    34.695202    43.398724    49.729538    -6.711812    -11.555644    15.580257    -20.729120    -9.954461    -3.883635    8.100695    -13.638674    4.132199    1.065582    18.679918    8.096717    -10.683464    -9.221034    -13.540180    -0.367718    -1.885550    0.409011    -7.746574    -13.035526    0.074869    1.688417    14.715117    7.188470    5.036895    -7.552039    -12.812994    -1.282248    -1.102572    1.388960    
-7.620044    82.839058    102.618492    -0.909882    -8.978360    175.566681    -3.155418    -20.501196    -0.280695    2.019885    13.789964    0.046009    1.859898    1.685306    -1.031239    7.378891    -3.332668    -0.056803    1.941763    17.584240    -2.415049    -41.701866    43.634037    -45.267788    1.154715    -5.182642    -16.774763    14.764275    -5.008603    0.034535    2.217691    21.301338    -0.052251    34.384457    43.530807    49.982300    -6.734322    -11.368199    15.833462    -20.521317    -9.769902    -3.801223    8.132764    -13.524807    4.128087    1.058458    18.698809    8.139574    -10.686678    -9.258207    -13.518179    -0.367679    -1.890827    0.408972    -7.699483    -12.946859    0.127253    1.679556    14.705960    7.195074    5.135962    -7.611544    -12.807114    -1.346476    -1.018398    1.458361    
-7.626355    82.838264    102.580452    -0.872616    -8.904874    175.494904    -3.144728    -20.519663    -0.279790    2.013689    13.816874    0.045799    1.856968    1.704933    -1.026251    7.376082    -3.328124    -0.051598    1.982492    17.550661    -2.437245    -41.579548    43.681572    -45.475025    0.998228    -5.464141    -17.207663    14.231771    -5.286345    0.220603    2.201537    21.287279    0.001483    34.078037    43.659981    50.232010    -6.758802    -11.184304    16.087294    -20.324312    -9.587817    -3.719097    8.164333    -13.412548    4.124477    1.051396    18.717665    8.179684    -10.689363    -9.295412    -13.495001    -0.367576    -1.896278    0.408861    -7.653346    -12.859056    0.178000    1.670808    14.696431    7.201358    5.235944    -7.669683    -12.799689    -1.408712    -0.937670    1.525595    
-7.632526    82.837242    102.543434    -0.836715    -8.834057    175.425949    -3.134870    -20.538260    -0.279208    2.007928    13.842773    0.045120    1.854668    1.723381    -1.021329    7.371289    -3.324754    -0.046901    2.020362    17.519726    -2.458312    -41.460190    43.728680    -45.676838    0.849224    -5.733802    -17.642075    13.729926    -5.556133    0.388311    2.186551    21.274530    0.052443    33.782394    43.783936    50.473476    -6.783425    -11.008658    16.341356    -20.147451    -9.412783    -3.637831    8.194447    -13.304058    4.121779    1.044789    18.736017    8.214486    -10.691328    -9.332114    -13.469958    -0.367459    -1.902108    0.408735    -7.609776    -12.773330    0.226111    1.663100    14.686119    7.207596    5.335342    -7.724866    -12.791150    -1.466701    -0.863166    1.588229    
-7.638722    82.835838    102.506805    -0.801742    -8.764981    175.358902    -3.126066    -20.557680    -0.279344    2.002946    13.868011    0.044139    1.852527    1.740760    -1.016505    7.364222    -3.322833    -0.042680    2.054846    17.491247    -2.478957    -41.340702    43.777569    -45.877392    0.707042    -5.994960    -18.090805    13.253678    -5.820684    0.539185    2.172369    21.262829    0.101210    33.494221    43.905582    50.709549    -6.808342    -10.839455    16.603373    -19.989588    -9.243073    -3.554586    8.223450    -13.197937    4.120202    1.038639    18.754543    8.242180    -10.692280    -9.369620    -13.440832    -0.367284    -1.908367    0.408546    -7.568309    -12.688286    0.271599    1.656166    14.674499    7.213900    5.434624    -7.777097    -12.780579    -1.520705    -0.794649    1.646551    
-7.644837    82.834030    102.471436    -0.768734    -8.699339    175.295853    -3.118475    -20.577467    -0.280056    1.998312    13.892159    0.042631    1.850867    1.756442    -1.011879    7.355104    -3.323268    -0.038928    2.085417    17.466331    -2.498344    -41.222527    43.828812    -46.074108    0.577158    -6.240456    -18.545914    12.815250    -6.072208    0.667798    2.159998    21.252520    0.146121    33.221756    44.022251    50.933353    -6.832880    -10.682277    16.870142    -19.853563    -9.084394    -3.470209    8.250482    -13.096914    4.119406    1.032842    18.772930    8.260722    -10.691941    -9.407455    -13.407084    -0.367097    -1.914722    0.408343    -7.530328    -12.605708    0.312981    1.650374    14.661572    7.219812    5.527896    -7.823867    -12.767902    -1.568371    -0.734825    1.698018    
-7.650915    82.831779    102.437065    -0.737391    -8.636692    175.236588    -3.111996    -20.597898    -0.281509    1.994033    13.915522    0.040697    1.849709    1.769670    -1.007411    7.343584    -3.325243    -0.035767    2.111779    17.444517    -2.517117    -41.103443    43.884071    -46.269302    0.459627    -6.472205    -19.011921    12.407586    -6.312169    0.773669    2.149338    21.243853    0.187151    32.964699    44.134487    51.145519    -6.857082    -10.536293    17.145824    -19.735199    -8.936205    -3.382519    8.275879    -13.000396    4.119108    1.027189    18.791548    8.268512    -10.690168    -9.446445    -13.366845    -0.367042    -1.921454    0.408287    -7.495669    -12.524864    0.351110    1.646118    14.647099    7.225277    5.612221    -7.864678    -12.753895    -1.609552    -0.683385    1.742479    
-7.656916    82.829132    102.403687    -0.707336    -8.577060    175.181458    -3.106313    -20.619240    -0.283839    1.989949    13.938368    0.038320    1.848758    1.780920    -1.003136    7.330415    -3.329806    -0.032930    2.134019    17.426006    -2.535375    -40.980923    43.944748    -46.466030    0.355138    -6.691775    -19.489563    12.022434    -6.541731    0.855346    2.140528    21.236546    0.224599    32.724552    44.242569    51.344753    -6.881510    -10.401219    17.432871    -19.629414    -8.798439    -3.289763    8.300054    -12.908543    4.118776    1.021550    18.810764    8.264424    -10.686945    -9.487041    -13.318850    -0.367085    -1.928279    0.408340    -7.463745    -12.445533    0.386229    1.643164    14.630746    7.229798    5.686051    -7.899106    -12.738627    -1.644236    -0.640189    1.779919    
-7.662820    82.826096    102.371170    -0.678118    -8.520214    175.130371    -3.100965    -20.641781    -0.286641    1.985666    13.961113    0.035157    1.848132    1.789910    -0.998927    7.316078    -3.337311    -0.030376    2.152880    17.410282    -2.553808    -40.853207    44.012386    -46.666862    0.263959    -6.901834    -19.981188    11.647390    -6.763344    0.911855    2.133953    21.230694    0.258809    32.501350    44.346428    51.531040    -6.906470    -10.275667    17.734873    -19.530134    -8.669999    -3.189625    8.323565    -12.821237    4.118042    1.015649    18.831148    8.246586    -10.682008    -9.530015    -13.260792    -0.367361    -1.935204    0.408652    -7.433946    -12.367379    0.419162    1.641486    14.612476    7.233079    5.749562    -7.927653    -12.722654    -1.673164    -0.603712    1.811142    
-7.668487    82.822739    102.339890    -0.649693    -8.466753    175.084167    -3.095775    -20.665215    -0.290065    1.981295    13.983605    0.031484    1.847897    1.796704    -0.994896    7.300762    -3.348059    -0.028013    2.168310    17.397100    -2.573018    -40.720734    44.086956    -46.870464    0.187348    -7.101290    -20.480045    11.276261    -6.975379    0.942390    2.129585    21.226330    0.289707    32.299122    44.444355    51.701473    -6.931810    -10.159855    18.049171    -19.433113    -8.551383    -3.082299    8.346656    -12.739706    4.117158    1.009501    18.853188    8.212626    -10.675156    -9.575658    -13.191339    -0.367861    -1.942220    0.409214    -7.406000    -12.291360    0.450274    1.640968    14.592834    7.234624    5.802850    -7.950760    -12.706765    -1.696524    -0.574152    1.836353    
-7.673918    82.819107    102.309753    -0.621975    -8.416168    175.042801    -3.090888    -20.689426    -0.294161    1.976951    14.006199    0.027406    1.847533    1.801223    -0.991149    7.285577    -3.362072    -0.025667    2.180950    17.386354    -2.593897    -40.581928    44.168930    -47.078976    0.125005    -7.291207    -20.985334    10.900604    -7.178391    0.949443    2.127239    21.223579    0.317941    32.117542    44.536194    51.856415    -6.957584    -10.052253    18.376711    -19.333250    -8.441226    -2.966700    8.369305    -12.663569    4.116558    1.003393    18.877281    8.159952    -10.666154    -9.624553    -13.108450    -0.368693    -1.949235    0.410145    -7.379731    -12.217033    0.480042    1.641580    14.571997    7.234367    5.847353    -7.969377    -12.691496    -1.715284    -0.550249    1.856597    
-7.679141    82.815155    102.280533    -0.594573    -8.367750    175.005997    -3.086148    -20.714378    -0.298744    1.972391    14.029168    0.022742    1.847232    1.803667    -0.987510    7.270647    -3.379782    -0.023317    2.191673    17.377293    -2.617877    -40.435410    44.259346    -47.294693    0.076443    -7.472628    -21.499737    10.512912    -7.372808    0.936707    2.127058    21.222317    0.344634    31.954727    44.622307    51.997501    -6.983330    -9.950438    18.720348    -19.226049    -8.337475    -2.840595    8.391890    -12.592219    4.116359    0.997333    18.904396    8.085318    -10.654313    -9.677975    -13.008833    -0.369723    -1.956555    0.411296    -7.354621    -12.143837    0.509086    1.643127    14.550348    7.232442    5.884842    -7.984579    -12.677375    -1.730350    -0.530659    1.872854    
